<svg xmlns="http://www.w3.org/2000/svg" xml:space="preserve" style="enable-background:new -123 263.6 347.9 314.3" viewBox="-123 263.6 347.9 314.3"><path d="M49.7 405.7c17.6.5 34.9 1.9 49.7 13.3 9.6 7.3 16.9 16.6 22.4 27.1 9.6 18.3 21.9 34.5 35.2 50.1 4.3 5.1 8 10.6 11.1 16.5 9.6 17.9 6.4 36.9-9.4 49.9-19.3 15.9-41.2 19.1-64.6 10.7-11.4-4.1-22.6-8.9-34.7-10.6-15.2-2.1-29.4 2-43.2 7.5-11.7 4.7-23.4 8.6-36.3 7.4-15.2-1.4-28.7-6.7-39.7-17.7-13.1-13.2-15.5-30.9-6.5-47.2 4.4-8.1 10-15.3 15.9-22.4 11.3-13.4 21.9-27.2 29.7-43 3.9-7.9 9.2-15 15.3-21.4 11.3-11.9 25.8-17.2 41.7-19.3 4.5-.5 8.9-1.1 13.4-.9zM144 317.9c-.4 19.4-5.5 37.1-19.3 51.5-17 17.8-40.8 15.7-54.3-5-11.3-17.3-12.6-36.4-8.1-56.1 2.7-12.1 7.8-23 16.5-32 19.2-19.6 42.4-15.3 55.2 4.6 3.6 5.7 6.2 11.7 7.8 18.2 1.5 6.2 2.3 12.5 2.2 18.8zM224.8 388.4c-1.4 24.4-10 45.3-30.1 60.2-24.3 18-51 7.4-56.7-22.3-5.1-26.3 8.2-58.4 30.6-73.5 9.2-6.2 19.3-9.5 30.2-6.5 15 4 22 15.3 24.9 29.6.8 4.1 1.4 8.2 1.1 12.5z" style="fill:#686866"/><path d="M-27.5 269.4c-.5.3-1 .8-1.5.9-.6.1-.7-.6-.3-.9.4-.4 1-.7 1.5-1.1.1.3.2.6.3 1.1z" style="fill:#f4f4f4"/><path d="M-19.2 369.8c-1.6-1.2-2.4-1.9-3.5-2.7 2-.6 2.8.1 3.5 2.7z" style="fill:#4a4a4a"/><path d="M39.2 307.7c4.4 18.9 3.8 37.3-6.1 54.7-12.1 21.4-35.7 25.2-53.9 8.5-15.2-14-21.2-32.2-21.6-52.4-.4-12.4 1.9-24.2 8.1-35.1 13.8-23.7 37.3-25.2 54.6-9.1 4.9 4.6 8.9 9.8 12 15.7 3.1 5.6 5.4 11.5 6.9 17.7zM-44.4 375.1c10 16.6 15.1 34.3 11.1 53.9-4.9 24.1-26.2 35-48.6 24.7-18.8-8.6-30-24.1-36.7-43.2-4.2-11.7-5.6-23.6-3.1-35.9 5.8-26.8 27.8-35.5 49.2-25.5 6.1 2.9 11.5 6.6 16.3 11.3 4.5 4.4 8.5 9.3 11.8 14.7z" style="fill:#686866"/><path d="M89.1 492.4s-3.2 11.9-34.5 35.1c-.6.4-1.7 1.2-3.3 1.3-1.7.1-3-.7-3.7-1.3C16.4 505.8 13 491.8 13 491.8c-2.4-10-2.5-26.6 6.9-33.4 2-1.4 5.7-3.4 10.2-3.6.6 0 10.3-.3 16.2 5.2.8.8 2.4 2.4 4.5 2.3 1.7 0 3-1.2 3.5-1.7 4.3-3.8 12.8-6.1 18-5.8 5.4.3 9.3 3.2 11.1 4.8 11.6 9.9 6.1 31.4 5.7 32.8z" style="fill:#6b55a6"/><path d="M83 500.9s-1.1 1.8-1.4 2" style="fill:#434342"/><path d="M102.7 476.8c-16.8-4.1-33.7-8.2-50.5-12.3" style="fill:#9d274d"/></svg>